<?xml version="1.0"?>
<svg width="754" height="756" xmlns="http://www.w3.org/2000/svg" xmlns:svg="http://www.w3.org/2000/svg">
 <g class="layer">
  <title>Layer 1</title>
  <path d="m690,749.5l-211,0l-9,-3l-8,-5l-10.5,-11.5l-26,-40l-1,-5l-26,-43l-16,-22l-10.5,-9.5l-11.5,9.5l-16,22l-53,88l-10.5,11.5l-8,5l-9,3l-211,0l-15,-6l-6.5,-12.5l0,-30l10,-46l36,-77l1.82,-3.64l2.18,-3.36l71,-130l8,-21l0,-6l-5.5,-5.5l-14,-5l-70,-3l-27,-5l-19,-9l-10.5,-9.5l-8,-13l-5,-15l-1,-41l3,-11l15,-26l5.8,-8.4l5.2,-5.6l6.1,-4.7l6.4,-4.8l57,-32l66,-27l81,-27l6.5,-57.5l10,-33l14,-25l10.5,-11.5l17,-13l24,-11l19,-3l48,0l27,6l22,11l17.5,13.5l21,37l11,48l2,35l4.5,4.5l102,35l42,18l29,16l5.13,2.74l1.87,1.26l19,12l14,13l5.1,4.9l0.4,0.6l7.5,8.5l1.9,2.5l1.6,2l10,18l3,10l0,38l-3,12l-11,19.6l-12.3,11.3l-4,2.8l-40.2,9.8l-70,3l-14,5l-5.5,8.5l3,12l16,34l52,91l29,57l22,56l7,34l2,32l-1.6,4.4l-6.9,6.1l-15,6z" fill="none" id="svg_1" stroke="#FFFFFF" stroke-linecap="round" stroke-linejoin="round" stroke-width="10"/>
 </g>
</svg>